<svg xmlns="http://www.w3.org/2000/svg" viewBox="0 0 232.65 146.31"><title>Asset 1</title><g id="Layer_2" data-name="Layer 2"><g id="Layer_1-2" data-name="Layer 1"><path d="M83.68,122h-2v4.29h2.18c1.84,0,2.57-.83,2.57-2.2S85.43,122,83.68,122Z"/><path d="M66.4,122c-2.39,0-3.77,1.88-3.77,5.1s1.38,5.1,3.77,5.1,3.74-1.88,3.74-5.1S68.77,122,66.4,122Z"/><path d="M197.34,0H0V95.58l35.31,50.74H232.65V50.56ZM49.59,129.79H47v5.49H43V118.92h6.54c4.16,0,6.22,2.14,6.22,5.44S53.75,129.79,49.59,129.79Zm16.81,5.86c-4.89,0-7.92-3.28-7.92-8.54s3-8.54,7.92-8.54,7.9,3.28,7.9,8.54S71.27,135.64,66.4,135.64Zm20.75-.37-1.24-3.7c-.57-1.68-1.22-2.27-2.76-2.27H81.66v6h-4V118.92h6.64c4.18,0,6,1.7,6,4.66a4,4,0,0,1-3,4v0c1.17.41,1.75,1.17,2.5,3.29l1.58,4.36Zm20-13h-5v13h-4v-13h-5v-3.38h14Zm9.09,13.34c-4.25,0-6.84-2-6.84-5.7h4.23c0,1.68.9,2.53,2.71,2.53,1.49,0,2.41-.67,2.41-1.72,0-1.24-.94-1.49-3.12-2.07-3.12-.8-5.95-1.61-5.95-5.14,0-3,2.48-5,6.41-5,4.11,0,6.41,1.84,6.41,5.35h-4.13a2.13,2.13,0,0,0-2.43-2.27c-1.31,0-2.16.62-2.16,1.54,0,1.08.87,1.42,3.26,2,3.15.78,5.9,1.63,5.9,5.21C122.94,133.6,120.32,135.64,116.25,135.64Zm24.3-.37h-4V128.5h-6v6.78h-4V118.92h4v6.2h6v-6.2h4Zm11.6.37c-4.89,0-7.92-3.28-7.92-8.54s3-8.54,7.92-8.54,7.9,3.28,7.9,8.54S157,135.64,152.14,135.64Zm29.22-.37h-5.28l-1.38-6.54c-.48-2.18-.9-4.39-1.22-6.57h0c-.32,2.18-.74,4.39-1.19,6.57l-1.38,6.54h-5.28l-3.31-16.35h3.86l1.1,5.9c.41,2.25.78,4.57,1.06,6.84h0c.37-2.27.8-4.57,1.31-6.84l1.29-5.9H176l1.29,5.9c.51,2.27.94,4.57,1.29,6.84h0c.3-2.27.67-4.59,1.08-6.84l1.08-5.9h3.88Zm15.42,0H186.22l3.31-16.35h3.93l-2.65,13h6Zm8,0h-4V118.92h4Zm11.6.37c-4.89,0-7.92-3.28-7.92-8.54s3-8.54,7.92-8.54,7.9,3.28,7.9,8.54S221.29,135.64,216.42,135.64Z"/><path d="M216.42,122c-2.39,0-3.77,1.88-3.77,5.1s1.38,5.1,3.77,5.1,3.74-1.88,3.74-5.1S218.78,122,216.42,122Z"/><path d="M152.14,122c-2.39,0-3.77,1.88-3.77,5.1s1.38,5.1,3.77,5.1,3.74-1.88,3.74-5.1S154.51,122,152.14,122Z"/><path d="M49,122.12H47v4.48h2c1.91,0,2.71-.85,2.71-2.23S50.95,122.12,49,122.12Z"/></g></g></svg>